<?xml version="1.0" encoding="utf-8"?>
<!-- Generator: Adobe Illustrator 17.0.0, SVG Export Plug-In . SVG Version: 6.00 Build 0)  -->
<!DOCTYPE svg PUBLIC "-//W3C//DTD SVG 1.1//EN" "http://www.w3.org/Graphics/SVG/1.1/DTD/svg11.dtd">
<svg version="1.1" id="Layer_1" xmlns="http://www.w3.org/2000/svg" xmlns:xlink="http://www.w3.org/1999/xlink" x="0px" y="0px"
	 width="151.137px" height="151.137px" viewBox="0 0 151.137 151.137" enable-background="new 0 0 151.137 151.137"
	 xml:space="preserve">
<g>
	<g>
		<g>
			<g>
				<g>
					<g>
						<polygon points="75.753,95.104 75.384,94.717 112.302,56.034 112.672,56.421 						"/>
						<polygon points="75.753,96.544 74.01,94.717 112.302,54.593 114.047,56.421 						"/>
					</g>
					<g>
						<polygon points="75.753,96.651 73.908,94.717 112.302,54.487 114.149,56.421 						"/>
						<path d="M75.753,98.092l-3.22-3.375l39.769-41.671l3.22,3.374L75.753,98.092z M75.282,94.717l0.471,0.494l37.021-38.79
							l-0.471-0.494L75.282,94.717z"/>
					</g>
				</g>
				<g>
					<g>
						<polygon points="75.753,97.038 73.539,94.717 112.302,54.099 114.517,56.421 						"/>
						<path d="M75.753,98.478l-3.589-3.761l40.139-42.057l3.589,3.761L75.753,98.478z M74.913,94.717l0.84,0.881l37.39-39.177
							l-0.84-0.881L74.913,94.717z"/>
					</g>
					<g>
						<path d="M75.753,98.586l-3.691-3.868l40.241-42.165l3.691,3.868L75.753,98.586z M75.015,94.717l0.738,0.773l37.287-39.07
							l-0.738-0.773L75.015,94.717z"/>
						<path d="M75.753,100.025l-5.066-5.308l41.616-43.604l5.066,5.308L75.753,100.025z M73.437,94.717l2.317,2.428l38.866-40.724
							l-2.317-2.428L73.437,94.717z M75.753,96.931l-2.113-2.214l38.662-40.51l2.113,2.214L75.753,96.931z"/>
					</g>
				</g>
			</g>
			<g>
				<g>
					<g>
						<path d="M75.753,96.198c-0.267,0-0.534-0.107-0.738-0.321l-0.369-0.387c-0.196-0.205-0.306-0.483-0.306-0.773
							c0-0.29,0.11-0.568,0.306-0.773l36.918-38.683c0.392-0.411,1.085-0.411,1.476,0l0.369,0.387c0.408,0.427,0.408,1.12,0,1.547
							L76.491,95.878C76.288,96.091,76.02,96.198,75.753,96.198z"/>
						<path d="M75.753,97.238c-0.525,0-1.019-0.216-1.395-0.609l-0.369-0.387c-0.381-0.399-0.599-0.955-0.599-1.525
							c0-0.57,0.219-1.126,0.599-1.525l36.919-38.683c0.734-0.769,2.057-0.769,2.791,0l0.369,0.387
							c0.386,0.405,0.599,0.947,0.599,1.525s-0.213,1.121-0.599,1.525L77.15,96.63C76.774,97.021,76.279,97.238,75.753,97.238z
							 M112.302,55.993c-0.049,0-0.078,0.016-0.083,0.02L75.303,94.696l0.369,0.431c0.047,0.049,0.102,0.063,0.161,0.001
							l36.919-38.684l-0.369-0.431C112.379,56.01,112.351,55.993,112.302,55.993z"/>
					</g>
					<g>
						<path d="M75.753,97.292c-0.558,0-1.082-0.228-1.476-0.641l-0.369-0.387c-0.394-0.413-0.612-0.963-0.612-1.547
							c0-0.585,0.217-1.134,0.612-1.547l36.918-38.683c0.381-0.399,0.919-0.628,1.476-0.628c0.557,0,1.096,0.229,1.476,0.628
							l0.369,0.387c0.394,0.413,0.612,0.963,0.612,1.547c0,0.585-0.218,1.134-0.612,1.547L77.229,96.65
							C76.836,97.064,76.312,97.292,75.753,97.292z M112.302,56.034L75.385,94.717l0.369,0.387c0.001,0,0.001,0,0.001,0
							l36.917-38.683L112.302,56.034z"/>
						<path d="M75.753,98.332c-0.803,0-1.561-0.33-2.134-0.93l-0.369-0.387c-0.584-0.611-0.905-1.428-0.905-2.299
							s0.321-1.687,0.905-2.299l36.919-38.683c0.556-0.583,1.334-0.917,2.134-0.917c0.8,0,1.577,0.334,2.134,0.917l0.369,0.387
							c0.584,0.611,0.905,1.427,0.905,2.299c0,0.871-0.321,1.688-0.905,2.3L77.887,97.403
							C77.317,98.002,76.558,98.332,75.753,98.332z M74.281,95.003c0.048,0.189,0.143,0.363,0.283,0.509l0.369,0.387
							c0.14,0.147,0.311,0.251,0.498,0.306L74.281,95.003z M113.775,56.705L76.079,96.204c0.185-0.056,0.355-0.159,0.493-0.304
							l36.919-38.684C113.631,57.069,113.728,56.895,113.775,56.705z M111.962,54.95c-0.184,0.056-0.352,0.155-0.479,0.288
							L74.564,93.922c-0.141,0.147-0.236,0.321-0.284,0.511L111.962,54.95z M112.643,54.95l1.133,1.186
							c-0.047-0.19-0.143-0.364-0.284-0.511l-0.369-0.387C112.995,55.105,112.826,55.006,112.643,54.95z"/>
					</g>
				</g>
				<g>
					<g>
						<path d="M75.753,97.565c-0.628,0-1.217-0.256-1.661-0.721l-0.369-0.387c-0.444-0.465-0.688-1.083-0.688-1.74
							c0-0.657,0.245-1.275,0.688-1.74l36.918-38.683c0.429-0.45,1.035-0.708,1.661-0.708s1.232,0.258,1.661,0.708l0.369,0.387
							c0.444,0.465,0.688,1.083,0.688,1.74c0,0.657-0.245,1.276-0.688,1.741L77.414,96.845
							C76.972,97.309,76.381,97.565,75.753,97.565z"/>
						<path d="M75.753,98.606c-0.874,0-1.697-0.359-2.318-1.01l-0.368-0.387c-0.633-0.662-0.981-1.547-0.981-2.492
							c0-0.944,0.349-1.829,0.982-2.492l36.918-38.683c0.605-0.634,1.449-0.998,2.318-0.998c0.869,0,1.714,0.364,2.319,0.998
							l0.368,0.386c0.633,0.663,0.981,1.548,0.981,2.492c0,0.944-0.349,1.83-0.981,2.493L78.073,97.595
							C77.451,98.247,76.628,98.606,75.753,98.606z M112.302,54.626c-0.384,0-0.749,0.153-1.004,0.419L74.38,93.728
							c-0.255,0.267-0.395,0.618-0.395,0.989s0.14,0.722,0.395,0.989l0.369,0.387c0.533,0.558,1.476,0.557,2.007,0l36.919-38.683
							c0.255-0.267,0.395-0.619,0.395-0.989c0-0.371-0.14-0.722-0.395-0.989l-0.368-0.386
							C113.051,54.779,112.686,54.626,112.302,54.626z"/>
					</g>
					<g>
						<path d="M75.753,98.659c-0.906,0-1.759-0.37-2.399-1.041l-0.369-0.387c-0.641-0.671-0.994-1.564-0.994-2.514
							s0.353-1.843,0.994-2.514l36.918-38.683c0.623-0.654,1.498-1.029,2.399-1.029s1.776,0.375,2.399,1.029l0.369,0.386
							c0.64,0.67,0.994,1.564,0.994,2.514c0,0.95-0.353,1.843-0.994,2.515L78.152,97.617C77.513,98.289,76.66,98.659,75.753,98.659z
							 M112.302,54.679c-0.351,0-0.687,0.141-0.922,0.388L74.462,93.751c-0.246,0.258-0.382,0.602-0.382,0.967
							s0.136,0.708,0.382,0.967l0.369,0.387c0.493,0.517,1.353,0.517,1.845,0l36.919-38.683c0.247-0.258,0.383-0.602,0.383-0.968
							c0-0.365-0.135-0.708-0.382-0.966l-0.369-0.387C112.99,54.82,112.654,54.679,112.302,54.679z"/>
						<path d="M75.753,99.7c-1.152,0-2.238-0.473-3.057-1.331l-0.368-0.385c-0.831-0.87-1.287-2.03-1.287-3.266
							c0-1.236,0.457-2.397,1.287-3.266l36.918-38.683c0.798-0.838,1.913-1.318,3.057-1.318s2.258,0.481,3.057,1.319l0.368,0.385
							c0.831,0.869,1.287,2.029,1.287,3.266c0,1.237-0.457,2.397-1.288,3.266L78.81,98.369C77.992,99.227,76.906,99.7,75.753,99.7z
							 M112.302,53.532c-0.659,0-1.294,0.27-1.742,0.74L73.642,92.955c-0.452,0.474-0.7,1.099-0.7,1.763s0.249,1.289,0.7,1.763
							l0.369,0.386c0.927,0.972,2.559,0.971,3.484,0.001l36.919-38.683c0.453-0.474,0.701-1.1,0.701-1.763s-0.249-1.289-0.7-1.762
							l-0.369-0.386C113.596,53.802,112.961,53.532,112.302,53.532z M75.754,97.499c-0.602,0-1.164-0.24-1.58-0.676l-0.369-0.388
							c-0.436-0.456-0.675-1.066-0.675-1.718c0-0.651,0.24-1.262,0.676-1.718l36.919-38.684c0.822-0.86,2.339-0.859,3.16,0
							l0.37,0.389c0.435,0.454,0.674,1.065,0.674,1.717c0,0.652-0.24,1.262-0.676,1.719L77.334,96.823
							C76.917,97.259,76.356,97.499,75.754,97.499z M112.302,55.72c-0.126,0-0.222,0.053-0.266,0.099L75.119,94.501
							c-0.059,0.062-0.089,0.134-0.089,0.215s0.03,0.153,0.089,0.215l0.369,0.387c0.118,0.123,0.413,0.124,0.53,0.001l36.919-38.683
							c0.059-0.062,0.089-0.135,0.089-0.215c0-0.08-0.03-0.153-0.088-0.214l-0.37-0.389C112.524,55.773,112.429,55.72,112.302,55.72
							z"/>
					</g>
				</g>
			</g>
		</g>
	</g>
	<g>
		<g>
			<g>
				<g>
					<g>
						<polygon points="75.384,95.104 38.466,56.421 38.834,56.034 75.753,94.717 						"/>
						<polygon points="75.384,96.544 37.091,56.421 38.834,54.593 77.128,94.717 						"/>
					</g>
					<g>
						<polygon points="75.384,96.651 36.989,56.421 38.834,54.487 77.23,94.717 						"/>
						<path d="M75.384,98.092l-39.77-41.671l3.22-3.374l39.77,41.671L75.384,98.092z M38.364,56.421l37.021,38.791l0.471-0.494
							l-37.021-38.79L38.364,56.421z"/>
					</g>
				</g>
				<g>
					<g>
						<polygon points="75.384,97.038 36.62,56.421 38.834,54.099 77.599,94.717 						"/>
						<path d="M75.384,98.478L35.245,56.421l3.589-3.761l40.139,42.057L75.384,98.478z M37.995,56.421l37.39,39.177l0.84-0.881
							L38.835,55.54L37.995,56.421z"/>
					</g>
					<g>
						<path d="M75.384,98.586L35.143,56.421l3.691-3.868l40.241,42.165L75.384,98.586z M38.097,56.421l37.288,39.07l0.738-0.773
							l-37.288-39.07L38.097,56.421z"/>
						<path d="M75.384,100.025L33.768,56.42l5.066-5.308L80.45,94.716L75.384,100.025z M36.518,56.421l38.866,40.724l2.317-2.428
							L38.835,53.993L36.518,56.421z M75.384,96.931l-38.662-40.51l2.113-2.214l38.662,40.51L75.384,96.931z"/>
					</g>
				</g>
			</g>
			<g>
				<g>
					<g>
						<path d="M75.384,96.198c-0.267,0-0.534-0.107-0.738-0.321L37.727,57.194c-0.408-0.427-0.408-1.12,0-1.547l0.369-0.387
							c0.392-0.411,1.085-0.411,1.476,0l36.919,38.683c0.196,0.205,0.306,0.483,0.306,0.773s-0.11,0.568-0.306,0.773l-0.369,0.387
							C75.919,96.091,75.651,96.198,75.384,96.198z"/>
						<path d="M75.384,97.238c-0.525,0-1.021-0.216-1.396-0.61L37.07,57.946c-0.386-0.404-0.599-0.946-0.599-1.525
							s0.213-1.121,0.599-1.526l0.369-0.386c0.734-0.769,2.057-0.769,2.791,0l36.919,38.683c0.381,0.398,0.599,0.954,0.599,1.525
							c0,0.571-0.219,1.127-0.6,1.526l-0.368,0.386C76.406,97.021,75.909,97.238,75.384,97.238z M38.834,55.993
							c-0.049,0-0.078,0.016-0.083,0.02l-0.368,0.385l36.919,38.727c0.054,0.057,0.109,0.056,0.161,0.001l0.37-0.388L38.915,56.012
							C38.912,56.01,38.883,55.993,38.834,55.993z"/>
					</g>
					<g>
						<path d="M75.384,97.292c-0.558,0-1.082-0.228-1.476-0.641L36.989,57.967c-0.394-0.413-0.612-0.963-0.612-1.547
							c0-0.585,0.218-1.134,0.612-1.547l0.369-0.386c0.381-0.399,0.919-0.628,1.476-0.628c0.557,0,1.096,0.229,1.476,0.628
							l36.919,38.683c0.394,0.413,0.612,0.963,0.612,1.547c0,0.585-0.217,1.134-0.612,1.547l-0.369,0.387
							C76.466,97.064,75.943,97.292,75.384,97.292z M38.834,56.034l-0.369,0.387l36.919,38.683c0.001,0,0.001,0,0.001,0l0.368-0.387
							L38.834,56.034z"/>
						<path d="M75.384,98.332c-0.803,0-1.561-0.33-2.134-0.93L36.332,58.719c-0.584-0.611-0.905-1.427-0.905-2.299
							s0.321-1.688,0.906-2.3l0.368-0.385c0.556-0.583,1.334-0.917,2.134-0.917c0.8,0,1.577,0.334,2.134,0.917l36.919,38.683
							c0.584,0.611,0.905,1.428,0.905,2.299s-0.321,1.688-0.905,2.3l-0.368,0.386C76.947,98.002,76.19,98.332,75.384,98.332z
							 M37.362,56.705c0.047,0.19,0.143,0.364,0.283,0.511L74.564,95.9c0.139,0.146,0.31,0.25,0.497,0.305L37.362,56.705z
							 M76.858,94.999l-1.146,1.205c0.185-0.056,0.353-0.159,0.491-0.304l0.37-0.388C76.714,95.365,76.811,95.19,76.858,94.999z
							 M39.175,54.95l37.682,39.483c-0.047-0.19-0.143-0.364-0.284-0.511L39.654,55.239C39.527,55.105,39.359,55.006,39.175,54.95z
							 M38.495,54.95c-0.184,0.056-0.352,0.155-0.479,0.288l-0.368,0.386c-0.142,0.148-0.237,0.321-0.285,0.512L38.495,54.95z"/>
					</g>
				</g>
				<g>
					<g>
						<path d="M75.384,97.565c-0.628,0-1.218-0.256-1.661-0.721L36.805,58.161c-0.444-0.465-0.688-1.083-0.688-1.74
							c0-0.657,0.245-1.276,0.688-1.741l0.369-0.386c0.429-0.45,1.035-0.708,1.661-0.708c0.626,0,1.232,0.258,1.661,0.708
							l36.919,38.683c0.444,0.465,0.688,1.083,0.688,1.74c0,0.657-0.245,1.276-0.688,1.74l-0.369,0.387
							C76.602,97.309,76.012,97.565,75.384,97.565z"/>
						<path d="M75.384,98.606c-0.874,0-1.697-0.359-2.318-1.01L36.147,58.912c-0.632-0.662-0.981-1.547-0.981-2.492
							c0-0.945,0.349-1.83,0.982-2.492l0.368-0.386c0.605-0.634,1.449-0.998,2.318-0.998c0.869,0,1.714,0.364,2.319,0.998
							l36.918,38.683c0.633,0.663,0.981,1.548,0.981,2.492c0,0.944-0.349,1.829-0.981,2.492l-0.369,0.386
							C77.082,98.247,76.258,98.606,75.384,98.606z M38.834,54.626c-0.384,0-0.749,0.153-1.004,0.419l-0.369,0.386
							c-0.255,0.267-0.395,0.618-0.395,0.989s0.14,0.722,0.394,0.989l36.919,38.684c0.532,0.558,1.476,0.557,2.007,0l0.369-0.387
							c0.255-0.267,0.395-0.618,0.395-0.989s-0.14-0.721-0.395-0.989L39.837,55.045C39.584,54.779,39.218,54.626,38.834,54.626z"/>
					</g>
					<g>
						<path d="M75.384,98.659c-0.907,0-1.759-0.37-2.399-1.041L36.067,58.935c-0.64-0.67-0.994-1.564-0.994-2.514
							s0.353-1.843,0.994-2.515l0.368-0.386c0.623-0.654,1.498-1.029,2.399-1.029c0.901,0,1.776,0.375,2.399,1.029l36.918,38.683
							c0.641,0.671,0.994,1.564,0.994,2.514s-0.353,1.843-0.994,2.514l-0.369,0.386C77.143,98.289,76.292,98.659,75.384,98.659z
							 M38.834,54.679c-0.351,0-0.687,0.141-0.922,0.388l-0.369,0.387c-0.247,0.258-0.383,0.602-0.383,0.967
							c0,0.365,0.135,0.708,0.382,0.967l36.919,38.684c0.494,0.517,1.353,0.517,1.845,0l0.369-0.387
							c0.246-0.258,0.382-0.602,0.382-0.967s-0.136-0.708-0.382-0.967L39.757,55.067C39.523,54.82,39.186,54.679,38.834,54.679z"/>
						<path d="M75.384,99.7c-1.153,0-2.239-0.473-3.057-1.331L35.409,59.686c-0.83-0.869-1.287-2.028-1.287-3.266
							c0-1.236,0.457-2.397,1.288-3.267l0.368-0.385c0.798-0.837,1.913-1.317,3.057-1.317s2.258,0.481,3.057,1.319l36.918,38.682
							c0.83,0.869,1.287,2.029,1.287,3.266s-0.457,2.397-1.287,3.266l-0.369,0.386C77.623,99.227,76.537,99.7,75.384,99.7z
							 M38.834,53.532c-0.659,0-1.294,0.27-1.742,0.74l-0.369,0.386c-0.452,0.474-0.701,1.1-0.701,1.763s0.249,1.289,0.7,1.762
							l36.919,38.683c0.926,0.972,2.559,0.971,3.484,0l0.37-0.387c0.452-0.473,0.7-1.099,0.7-1.763c0-0.664-0.249-1.289-0.7-1.762
							L40.577,54.271C40.128,53.802,39.494,53.532,38.834,53.532z M75.385,97.499c-0.602,0-1.164-0.24-1.58-0.676L36.886,58.139
							c-0.436-0.455-0.675-1.066-0.675-1.718c0-0.651,0.24-1.262,0.675-1.719l0.37-0.387c0.822-0.86,2.339-0.859,3.16,0
							l36.919,38.684c0.436,0.456,0.675,1.066,0.675,1.718c0,0.652-0.24,1.262-0.676,1.719l-0.37,0.388
							C76.549,97.259,75.988,97.499,75.385,97.499z M38.834,55.72c-0.126,0-0.222,0.053-0.266,0.099L38.2,56.205
							c-0.059,0.062-0.089,0.135-0.089,0.215c0,0.08,0.03,0.153,0.088,0.214l36.919,38.685c0.118,0.123,0.413,0.123,0.53,0.001
							l0.371-0.388c0.059-0.062,0.089-0.134,0.089-0.215c0-0.081-0.03-0.153-0.089-0.215L39.102,55.818
							C39.057,55.773,38.961,55.72,38.834,55.72z"/>
					</g>
				</g>
			</g>
		</g>
	</g>
</g>
</svg>
