<?xml version="1.0" encoding="utf-8"?>
<svg version="1.1" id="Layer_1" xmlns="http://www.w3.org/2000/svg" xmlns:xlink="http://www.w3.org/1999/xlink" x="0px" y="0px"
	 viewBox="0 0 234.9 206.5" enable-background="new 0 0 234.9 206.5" xml:space="preserve">
<g>
	<path d="M71.9,58c0,2.8,0,4.5,0,6.3c0,42.6,0,85.3,0,127.9c0,8.5-2.5,10.9-11,10.9c-3.3,0-6.7,0-10,0c-8.2,0-10.8-2.5-10.8-10.7
		c0-42.6,0-85.3,0-127.9c0-1.8,0-3.6,0-6.4c-1.7,1.4-2.8,2.2-3.8,3.2C27.1,70.6,18,79.9,8.6,88.9c-1.5,1.5-4.1,1.9-6.2,2.8
		c-0.8-2-2.2-4-2.2-6.1c-0.3-8.5-0.1-17-0.1-25.5c0-4.9,1.6-9.1,5.1-12.6C19.9,32.9,34.6,18.1,49.3,3.4C54-1.2,58-1.1,62.7,3.6
		c14.6,14.6,29.2,29.2,43.8,43.8c3.6,3.6,5.4,7.8,5.3,13c-0.1,8.5,0.1,17-0.1,25.5c-0.1,2-1.6,4-2.4,6c-2-0.9-4.4-1.3-5.9-2.7
		C94.3,80.2,85.3,71,76.2,62C75.1,60.8,73.8,59.8,71.9,58z"/>
	<path d="M162.9,148.6c0-3.1,0-4.9,0-6.7c0-42.5,0-84.9,0-127.4c0-8.8,2.4-11.2,11.3-11.2c3.3,0,6.7,0,10,0
		c7.9,0,10.5,2.6,10.5,10.4c0,30.5,0,61,0,91.4c0,13,0,26,0,39c0,1.1,0.1,2.2,0.2,4.1c1.7-1.6,2.9-2.6,4.1-3.7
		c9.3-9.3,18.6-18.7,28-27.8c1.2-1.2,3.8-2.3,5.1-1.7c1.3,0.5,2.5,3,2.5,4.7c0.2,9.3,0.6,18.7-0.1,28c-0.3,3.8-2.2,8.2-4.9,11
		c-14.5,15.1-29.5,29.8-44.4,44.6c-4.4,4.4-8.5,4.3-13-0.2c-14.8-14.7-29.4-29.4-44.2-44.1c-3.5-3.5-5.2-7.6-5.1-12.5
		c0.1-8.7-0.1-17.3,0.1-26c0.1-1.9,1.2-5,2.3-5.3c1.7-0.4,4.4,0.8,5.8,2.1c9.2,8.9,18.2,18.1,27.3,27.1
		C159.6,145.5,160.8,146.6,162.9,148.6z"/>
</g>
</svg>
